<?xml version="1.0" encoding="UTF-8"?>
<!DOCTYPE svg PUBLIC "-//W3C//DTD SVG 1.1//EN" "http://www.w3.org/Graphics/SVG/1.1/DTD/svg11.dtd">
<!-- Creator: CorelDRAW X6 -->
<svg xmlns="http://www.w3.org/2000/svg" xml:space="preserve" width="9.9294in" height="9.9294in" version="1.1" style="shape-rendering:geometricPrecision; text-rendering:geometricPrecision; image-rendering:optimizeQuality; fill-rule:evenodd; clip-rule:evenodd"
viewBox="0 0 7252 7252"
 xmlns:xlink="http://www.w3.org/1999/xlink">
 <defs>
  <style type="text/css">
   <![CDATA[
    .fil0 {fill:none}
    .fil1 {fill:#1DD3F8}
   ]]>
  </style>
 </defs>
 <g id="Layer_x0020_1">
  <metadata id="CorelCorpID_0Corel-Layer"/>
  <rect class="fil0" width="7252" height="7252"/>
  <path class="fil1" d="M4073 5021l-151 -2c-209,17 -486,2 -702,2l-1404 0c-541,0 -495,36 -495,-209l0 -2111c0,-96 -32,-268 68,-287 53,-10 283,-4 348,0 -25,-84 -69,-145 -73,-243l-6 -27c-54,-12 -262,-15 -300,6 -160,3 -281,154 -303,309l-2 197 0 2044 0 196c4,222 -50,477 170,603 102,59 204,50 334,50l4196 0c126,0 222,-6 305,-71 57,-45 134,-139 133,-246 18,-31 8,-1242 8,-1395 0,-163 8,-1255 -6,-1390 -26,-134 -90,-213 -183,-264 -82,-44 -307,-57 -409,-36 -6,113 -26,167 -56,262 92,5 226,-9 309,2 99,13 75,133 75,227l0 2129c0,83 26,222 -57,247 -49,14 -1664,5 -1798,5zm-367 -2329c62,-16 448,-7 539,-5 1,95 -16,588 10,632 0,141 103,269 212,331 51,29 82,32 135,54 68,289 435,264 491,18 32,-140 -57,-255 -149,-290 -59,-22 -133,-23 -191,2 -72,30 -80,56 -124,109 -151,-33 -220,-143 -220,-316 0,-181 2,-363 0,-544 225,-15 505,36 701,-47 513,-216 400,-1001 -167,-1054 -183,-17 -242,44 -322,61 -32,-46 -45,-31 -71,-83 -90,-183 -262,-315 -470,-339 -136,-16 -178,11 -291,32 -56,-280 -342,-529 -696,-488 -305,35 -570,302 -561,637l-144 -2 -88 18c-323,50 -603,468 -446,858 63,157 191,293 344,354 235,94 407,22 643,54 -7,173 -1,360 0,534 0,88 -5,154 -51,215 -31,41 -99,104 -172,105 -38,-50 -57,-79 -121,-104 -56,-22 -132,-26 -190,-2 -95,40 -185,143 -150,291 61,259 443,257 491,-19 106,-33 185,-71 238,-132 45,-52 113,-157 110,-260 21,-37 12,-542 8,-625l537 0 1 1153c-235,50 -225,493 94,483 180,-5 314,-206 198,-390 -45,-72 -73,-54 -126,-103l0 -1138zm-675 3361c19,44 117,30 171,30 143,0 930,7 974,-2 100,-20 -6,-216 -26,-279 -22,-69 -20,-94 -103,-94l-785 0c-65,0 -123,-16 -147,42 -18,42 -100,267 -84,302zm-410 327c10,89 82,106 176,106l1404 0c191,0 449,45 425,-140 -14,-108 -124,-104 -184,-104l-844 0c-249,0 -605,-7 -845,0 -81,2 -143,53 -133,139z"/>
 </g>
</svg>
