<?xml version="1.0" encoding="UTF-8"?>
<!DOCTYPE svg PUBLIC "-//W3C//DTD SVG 1.1//EN" "http://www.w3.org/Graphics/SVG/1.1/DTD/svg11.dtd">
<!-- Creator: CorelDRAW X6 -->
<svg xmlns="http://www.w3.org/2000/svg" xml:space="preserve" width="6.42746in" height="6.42746in" version="1.1" style="shape-rendering:geometricPrecision; text-rendering:geometricPrecision; image-rendering:optimizeQuality; fill-rule:evenodd; clip-rule:evenodd"
viewBox="0 0 3416 3416"
 xmlns:xlink="http://www.w3.org/1999/xlink">
 <defs>
  <style type="text/css">
   <![CDATA[
    .fil0 {fill:none}
    .fil1 {fill:#1DD3F8}
   ]]>
  </style>
 </defs>
 <g id="Layer_x0020_1">
  <metadata id="CorelCorpID_0Corel-Layer"/>
  <rect class="fil0" width="3416" height="3416"/>
  <g id="_574921856">
   <path class="fil1" d="M801 1334c0,-14 -1,-30 1,-42 2,-12 0,-31 0,-44l2 -64c2,-15 2,-37 3,-51 0,-5 1,-6 1,-10 1,-22 3,-41 4,-62 0,-19 5,-40 5,-61 12,-6 66,-24 83,-30 37,-15 74,-27 111,-41l41 -15c5,-2 9,-3 14,-5 5,-2 10,-4 14,-5l28 -10c17,-5 32,-12 49,-17l105 -38c32,-11 65,-25 97,-35 5,-2 9,-3 14,-5 2,-1 4,-2 6,-3 3,-1 5,-1 8,-2 32,-14 65,-23 97,-36 28,-11 56,-20 84,-30 10,-4 18,-7 28,-10 5,-2 9,-4 14,-5 4,-1 3,-1 6,-3 3,-1 5,-1 8,-2 2,-1 4,-2 6,-3 3,-1 5,-2 7,-3l28 -10c7,-3 38,-15 42,-15 5,0 123,44 132,47 3,1 5,1 8,2l56 20c46,17 92,34 139,50l28 10c37,13 74,27 111,40 10,3 19,7 28,10l98 35c3,1 4,1 7,2l77 28c5,2 9,3 14,5l84 30c9,3 19,7 28,10 5,2 9,3 14,5 8,3 64,24 70,25l10 128c0,4 0,7 0,11 0,5 1,6 1,10 1,10 0,20 1,31 1,10 2,39 2,51 0,5 1,6 1,10 1,14 -1,29 1,42 2,22 -2,139 -2,167 0,7 -1,10 -1,17 0,17 -4,70 -5,85 -2,21 -3,44 -6,66l-8 64c-7,46 -13,93 -24,138 -1,5 -2,9 -3,15 -1,5 -2,9 -3,15 -1,6 -2,10 -3,16 -2,10 -4,19 -7,29 -12,47 -27,93 -42,138 -3,9 -6,17 -9,27l-10 27c-4,9 -7,17 -11,25 -2,5 -3,8 -5,13l-17 37c-2,4 -4,8 -6,12l-37 71c-3,4 -4,7 -7,11l-14 23c-16,28 -38,60 -58,86 -3,3 -5,6 -8,10 -3,4 -5,7 -8,10 -11,13 -21,27 -33,39l-49 53c-6,5 5,-4 -1,1l-30 29c-11,11 -36,32 -49,41 -4,3 -6,5 -10,8l-31 24c-31,21 -61,41 -94,59l-66 33c-9,4 -17,7 -26,11 -9,4 -17,7 -26,10 -4,2 -9,3 -13,5 -46,18 -108,34 -156,42 -7,1 -25,5 -33,3 -6,-1 -11,-1 -16,-2 -28,-4 -55,-11 -82,-17 -36,-8 -105,-33 -140,-49l-51 -25c-19,-9 -37,-20 -55,-31 -41,-24 -80,-52 -116,-83l-101 -98 -33 -39c-55,-68 -102,-142 -141,-220l-23 -49c-9,-22 -19,-42 -27,-65l-14 -40c-10,-26 -17,-55 -26,-82 -3,-9 -5,-18 -8,-28 -3,-9 -5,-19 -7,-29 -2,-9 -5,-20 -7,-30 -9,-40 -17,-79 -24,-120l-22 -177 -3 -51c-2,-13 -5,-88 -5,-103 0,-25 -1,-47 -1,-72zm902 -811l7 0c14,1 27,6 45,12 4,2 7,2 11,4l53 19c7,2 14,5 21,8l214 78c15,6 29,10 43,16l139 50c4,1 7,2 11,4 4,1 7,3 11,4l32 11c21,9 42,16 64,23l171 62c7,3 14,5 21,8l129 47c22,7 39,14 54,34 4,6 7,12 10,20 3,8 3,15 4,25 1,8 3,18 3,26 0,9 1,18 2,27 1,8 1,19 2,27 1,4 1,10 1,14l8 123c1,20 2,36 2,56 0,6 1,9 1,14l0 43c0,5 1,7 1,12l0 4c0,54 0,108 -2,162 0,5 -1,5 -1,10 0,3 0,7 0,10 0,4 -1,4 -1,9 0,3 0,7 0,10 0,4 -1,5 -1,10l-4 67c-3,24 -4,50 -7,74 -7,48 -11,96 -21,144l-7 34c-3,20 -8,40 -12,60l-14 57c-3,16 -9,32 -13,48l-9 32c-4,11 -6,20 -10,31 -9,26 -17,51 -27,76 -2,5 -4,10 -6,14 -7,19 -16,38 -24,57 -17,40 -54,114 -77,148l-74 109c-3,4 -6,8 -9,12 -3,4 -5,7 -9,11l-52 61c-9,11 -30,33 -41,43l-7 6c-1,1 -2,1 -3,2 -2,2 -3,3 -5,5l-37 35c-13,11 -25,22 -38,33 -23,18 -46,36 -70,52 -16,11 -33,22 -50,32l-26 15c-36,20 -72,38 -109,55 -9,4 -18,8 -28,12 -33,13 -59,21 -91,32l-31 9c-5,1 -11,3 -17,4 -6,1 -11,2 -16,4 -5,1 -12,2 -17,4 -6,1 -11,2 -17,3 -56,9 -75,12 -129,3 -21,-4 -48,-8 -68,-14 -16,-5 -32,-8 -48,-13l-62 -20c-10,-4 -19,-7 -29,-11 -30,-12 -64,-26 -92,-42 -3,-1 -4,-2 -7,-3l-27 -14c-38,-21 -77,-45 -112,-71 -23,-18 -46,-35 -69,-54 -11,-9 -23,-19 -33,-29l-11 -9c-4,-4 -53,-52 -60,-62 -9,-12 -20,-22 -29,-33 -13,-17 -28,-33 -41,-51l-13 -18c-27,-35 -49,-73 -72,-111 -14,-24 -27,-49 -40,-73 -11,-20 -19,-42 -30,-63 -12,-24 -38,-91 -46,-117l-10 -31c-2,-5 -3,-11 -5,-16l-10 -31c-7,-26 -16,-53 -22,-79 -2,-11 -5,-22 -8,-33l-29 -156c-7,-43 -19,-145 -20,-184 0,-13 -2,-25 -3,-37 -1,-17 -1,-42 -3,-58l-1 -40c0,-28 -1,-53 -1,-80l1 -87c0,-11 2,-71 4,-83 1,-5 0,-10 0,-15l11 -149c2,-19 4,-61 10,-77 13,-34 33,-41 64,-53 42,-15 87,-32 129,-47l85 -31c7,-2 14,-6 21,-8l43 -15c8,-3 14,-5 22,-8l64 -23c29,-10 56,-21 85,-31 4,-1 7,-3 11,-4 39,-13 78,-29 117,-43l363 -131c8,-3 15,-4 22,-5z"/>
   <path class="fil1" d="M1753 1844l0 163c0,10 1,18 -3,24 -4,5 -9,10 -18,10l-49 0c-4,0 -7,-1 -10,-3l-3 -2c0,0 0,0 -1,0 -9,-9 -8,-14 -8,-27l0 -164c-5,-3 -13,-8 -17,-12 -11,-11 -18,-20 -24,-35 -9,-23 -7,-52 4,-74 5,-9 12,-18 19,-25l12 -10c2,-2 4,-2 7,-4 23,-14 52,-14 77,-6 18,6 37,23 47,40 5,8 6,11 9,21 1,5 3,9 3,16l0 18c0,10 -5,23 -8,31 -7,16 -23,32 -38,40zm-201 -324l0 -212c0,-25 7,-43 19,-56 10,-11 30,-24 51,-24l171 0c22,0 39,11 50,22 6,6 11,14 14,22 3,7 6,20 6,31l0 217c0,2 -1,3 -3,3l-305 0c-2,0 -3,-1 -3,-3zm-148 -229l0 232c-30,0 -48,-2 -76,10 -19,8 -32,21 -44,37 -11,15 -21,40 -21,60l0 453c0,28 14,56 33,74 15,14 30,24 51,29 6,2 16,3 24,3l677 0c17,0 28,-5 41,-11 9,-4 24,-14 31,-21 3,-3 3,-4 6,-7 2,-2 4,-5 6,-7 10,-14 21,-39 21,-58l0 -458c0,-39 -30,-79 -65,-95 -27,-12 -45,-10 -75,-10l0 -208c0,-46 -5,-71 -20,-106 -12,-28 -38,-61 -61,-79 -3,-2 -5,-4 -8,-6l-17 -11c-6,-4 -12,-7 -18,-10 -19,-10 -41,-17 -64,-20 -8,-1 -16,-3 -26,-3l-184 0c-32,0 -74,13 -101,30 -12,7 -20,13 -31,22l-14 13c-9,9 -23,27 -29,37l-12 21c-12,25 -23,54 -23,90z"/>
  </g>
 </g>
</svg>
