<?xml version="1.0" encoding="UTF-8"?>
<!DOCTYPE svg PUBLIC "-//W3C//DTD SVG 1.1//EN" "http://www.w3.org/Graphics/SVG/1.1/DTD/svg11.dtd">
<!-- Creator: CorelDRAW X6 -->
<svg xmlns="http://www.w3.org/2000/svg" xml:space="preserve" width="10.49in" height="10.49in" version="1.1" style="shape-rendering:geometricPrecision; text-rendering:geometricPrecision; image-rendering:optimizeQuality; fill-rule:evenodd; clip-rule:evenodd"
viewBox="0 0 13491 13491"
 xmlns:xlink="http://www.w3.org/1999/xlink">
 <defs>
  <style type="text/css">
   <![CDATA[
    .fil0 {fill:none}
    .fil1 {fill:#1DD3F8}
   ]]>
  </style>
 </defs>
 <g id="Layer_x0020_1">
  <metadata id="CorelCorpID_0Corel-Layer"/>
  <rect class="fil0" width="13491" height="13491"/>
  <g id="_574919072">
   <path class="fil1" d="M7994 9601c0,-179 163,-225 311,-259 121,106 159,102 207,311 -311,465 -519,24 -519,-52zm1037 -1608c105,-198 57,-200 311,-259 287,192 287,326 0,519 -254,-59 -207,-62 -311,-259zm-1297 -1608c0,-299 575,-481 415,207 -119,31 -159,72 -271,13 -64,-34 -144,-125 -144,-221zm104 -2386c354,-528 844,163 207,311 -9,-8 -25,-31 -29,-23 -30,66 -178,-288 -178,-289zm-4772 5405l-80 -127 127 64c525,239 1463,-202 1146,-519 -468,-224 -465,505 -1297,-52 260,-1117 295,-260 -349,-1051 -514,-630 -251,-1426 557,-1854 0,-513 -811,-1103 830,-1971 6,282 204,574 349,740 404,463 676,214 585,-66 -122,-166 -220,-143 -376,-402 -688,-1145 622,-2266 1633,-1633 490,307 351,567 351,1309 -357,0 -930,-74 -1193,52 -169,352 162,336 206,733 38,346 -165,614 -363,720 -652,346 -870,-419 -1177,-86 -125,135 0,237 37,397 -201,134 -475,407 -561,634 -128,336 24,696 280,840 303,171 834,73 898,-194 121,-507 -481,-165 -482,-165 -292,71 29,-27 -238,-27 -130,-557 188,-440 519,-934 651,54 836,109 1234,-322 331,-358 338,-722 218,-1234l622 0 0 1919 -415 0c-22,-270 -141,-314 -363,-207 -28,28 -231,934 184,855 170,-32 165,-64 179,-233l415 0 0 1193 -467 0c-157,-297 -279,-462 -778,-417 -484,44 -591,579 -169,519 218,-31 197,-208 419,-45 227,166 60,273 21,431 -108,440 396,400 506,-73l467 0 0 1141c-399,0 -797,1 -1196,-3 -273,-3 -351,-28 -478,144 -72,96 -151,313 -139,475 23,324 287,573 581,620 362,58 782,-152 610,-511 -228,-228 -726,473 -726,-311l1349 0 0 1037c-279,75 -442,307 -1035,314 -592,7 -975,-62 -1341,-375l-187 -176c-168,-186 -144,-210 -243,-432 -116,-261 -186,-92 -670,-720zm4409 -5560l-519 0 0 -934c0,-385 1233,-946 1877,-166 360,436 222,732 364,933l782 514c588,437 794,996 234,1561 -282,285 -664,103 -664,477 0,459 956,-118 1089,-207 99,149 519,476 519,985 0,699 -778,1109 -778,1193 0,164 52,197 93,322 172,536 11,985 -419,1322 -100,79 -79,42 -157,102 -192,146 -55,42 -208,363 -376,791 -1585,948 -2266,692 -163,-61 -336,-174 -466,-209l0 -1037 622 0c175,750 1349,699 1349,-156 0,-843 -1135,-865 -1297,-259l-674 0 0 -1141 1712 0c140,602 1297,768 1297,-311 0,-667 -1129,-823 -1297,-104l-1712 0 0 -1193 363 0c196,734 1349,570 1349,-207 0,-811 -1183,-916 -1349,-207l-363 0 0 -1919 519 0c171,735 1297,528 1297,-104 0,-963 -854,-858 -1106,-639 -129,112 -175,142 -191,328zm-4927 1037c0,585 2,288 104,726 -81,120 -1174,913 -538,2146 154,298 231,381 486,551 -13,562 -249,987 340,1683 144,170 233,176 357,317 104,118 490,1267 2052,1267 537,0 1077,-198 1400,-415 696,466 1697,542 2456,174 846,-410 815,-805 997,-1026 106,-129 242,-164 365,-309 576,-681 343,-1165 332,-1691 764,-404 1052,-1906 -52,-2645 164,-706 218,-1124 -402,-1672 -184,-163 -645,-500 -894,-558 0,-422 -215,-802 -426,-1026 -539,-572 -1509,-634 -2146,-197 -112,77 -120,113 -229,186 -611,-409 -585,-467 -1349,-467 -536,0 -1092,440 -1298,880l-173 553c-59,118 27,1 -68,88 -94,87 -1314,627 -1314,1435z"/>
   <path class="fil1" d="M4209 8203c-2,302 -12,189 102,360l207 0c115,-171 104,-58 104,-363l-206 -107 -207 109z"/>
   <path class="fil1" d="M8875 5866c0,337 159,327 415,156l0 -207c-163,-109 -415,-203 -415,52z"/>
   <polygon class="fil1" points="3066,9404 3113,9341 2986,9277 "/>
  </g>
 </g>
</svg>
