<?xml version="1.0" encoding="UTF-8"?>
<!DOCTYPE svg PUBLIC "-//W3C//DTD SVG 1.1//EN" "http://www.w3.org/Graphics/SVG/1.1/DTD/svg11.dtd">
<!-- Creator: CorelDRAW X6 -->
<svg xmlns="http://www.w3.org/2000/svg" xml:space="preserve" width="7.14487in" height="7.14487in" version="1.1" style="shape-rendering:geometricPrecision; text-rendering:geometricPrecision; image-rendering:optimizeQuality; fill-rule:evenodd; clip-rule:evenodd"
viewBox="0 0 7338 7338"
 xmlns:xlink="http://www.w3.org/1999/xlink">
 <defs>
  <style type="text/css">
   <![CDATA[
    .fil0 {fill:none}
    .fil1 {fill:#1DD3F8}
   ]]>
  </style>
 </defs>
 <g id="Layer_x0020_1">
  <metadata id="CorelCorpID_0Corel-Layer"/>
  <rect class="fil0" width="7338" height="7338"/>
  <g id="_749000784">
   <path class="fil1" d="M2529 1849c0,-122 560,-245 704,-269 604,-100 1287,-104 1890,-2 165,28 1019,203 591,389 -169,74 -362,121 -545,156 -661,128 -1928,124 -2518,-156 -56,-27 -122,-58 -122,-119zm-262 -31l0 722c0,130 252,187 262,-42 4,-100 0,-213 0,-314 734,389 2600,374 3307,0l0 775c-19,229 -986,361 -1203,366 -71,2 -507,2 -559,27 -136,68 -72,244 35,244 355,0 709,-4 1056,-74 211,-43 326,-65 518,-141 53,-21 106,-56 152,-67 0,234 2,468 0,702 -1,123 -69,163 -146,209 -135,81 -370,141 -533,168l-472 61 -513 21c-123,0 -317,-37 -380,18 -68,59 -99,236 139,234 110,-1 195,14 314,11l444 -27c260,-38 387,-28 690,-116 206,-60 270,-83 457,-182 0,187 5,379 0,566 -9,407 -936,525 -1002,557 -83,39 -85,154 -32,205 77,75 137,37 275,6 320,-70 789,-248 958,-538 20,-35 63,-135 63,-188l0 -3171c0,-153 -176,-277 -286,-331 -147,-73 -286,-125 -466,-161 -699,-140 -1617,-164 -2318,-3 -169,39 -321,83 -456,151 -100,50 -303,189 -303,314z"/>
   <path class="fil1" d="M3272 4716c0,169 104,271 248,327 186,73 650,236 770,360 89,92 133,298 133,432l-2920 0c0,-132 43,-343 133,-432 96,-95 233,-154 360,-205 69,-28 130,-56 201,-81 235,-83 457,-147 457,-422 0,-55 -78,-157 -116,-219 -41,-69 -75,-145 -107,-228 -106,-272 -180,-738 -79,-1038 84,-250 322,-305 606,-305 220,0 442,46 540,172 136,175 106,319 123,486 26,254 -102,675 -227,909 -37,70 -122,153 -122,244zm-1224 -1214c0,340 10,441 119,770 42,126 100,256 167,367 24,40 56,70 60,118 -325,172 -864,225 -1050,614 -52,109 -101,308 -101,464 0,103 131,262 272,262l2899 0c150,0 272,-176 272,-251 0,-313 -99,-595 -360,-749 -147,-87 -410,-182 -588,-249l-203 -79c1,-63 18,-43 70,-139 187,-349 317,-781 274,-1199 -53,-516 -349,-786 -919,-786 -565,0 -910,287 -910,858z"/>
  </g>
 </g>
</svg>
