<?xml version="1.0" encoding="UTF-8"?>
<!DOCTYPE svg PUBLIC "-//W3C//DTD SVG 1.1//EN" "http://www.w3.org/Graphics/SVG/1.1/DTD/svg11.dtd">
<!-- Creator: CorelDRAW X6 -->
<svg xmlns="http://www.w3.org/2000/svg" xml:space="preserve" width="13.9333in" height="13.9333in" version="1.1" style="shape-rendering:geometricPrecision; text-rendering:geometricPrecision; image-rendering:optimizeQuality; fill-rule:evenodd; clip-rule:evenodd"
viewBox="0 0 9157 9157"
 xmlns:xlink="http://www.w3.org/1999/xlink">
 <defs>
  <style type="text/css">
   <![CDATA[
    .fil1 {fill:none}
    .fil0 {fill:#1DD3F8;fill-rule:nonzero}
   ]]>
  </style>
 </defs>
 <g id="Layer_x0020_1">
  <metadata id="CorelCorpID_0Corel-Layer"/>
  <path class="fil0" d="M5592 1492l0 0 19 -61 37 12 16 8 26 18 18 9 11 7 18 14 17 9 8 5 23 16 12 10 30 35 9 13 23 46 3 7 19 53 3 10 4 26 6 28 2 14 0 35 0 35 0 62 0 72 0 17 2 11 4 10 0 1 0 1 12 6 8 5 13 4 0 0 130 39 3 1 127 46 3 1 123 53 2 1 58 28 2 1 58 30 0 0 22 11 5 3 19 12 3 2 6 4 7 2 13 5 9 5 6 0 4 -4 11 -9 12 -7 11 -11 19 -19 23 -23 1 0 87 -85 0 0 23 -23 5 -4 23 -19 11 -7 23 -12 6 -3 28 -11 0 0 28 -12 12 -4 23 -5 0 0 28 -7 14 -2 28 0 30 0 15 2 28 7 0 0 21 4 4 1 28 7 7 2 30 12 14 7 23 16 3 2 21 17 22 15 27 19 0 13 215 213 0 0 231 231 0 0 23 23 5 5 19 23 7 11 9 19 14 19 10 22 5 23 8 16 5 13 7 28 2 15 0 30 0 23 -2 15 -7 28 0 0 -6 27 0 0 -5 23 -3 10 -12 30 -10 17 -17 21 -15 22 -2 3 -13 16 -2 7 -5 7 -19 28 -13 0 -51 54 -3 3 -72 65 -7 10 -4 11 0 1 0 4 0 7 5 11 38 69 1 2 35 69 1 3 29 68 34 68 3 6 53 139 1 3 46 146 2 7 3 13 4 6 6 6 4 6 6 1 11 3 14 0 55 -4 5 0 53 0 51 0 5 0 58 5 10 2 49 12 3 1 39 12 8 3 42 19 9 5 35 23 10 8 28 28 3 3 15 17 -48 42 0 1027 48 42 -26 30 -8 8 -35 28 -10 6 -35 19 -9 4 -46 16 -13 3 -53 7 -2 0 -49 4 0 0 -58 7 -7 0 -106 0 -28 0 -17 0 -3 1 -7 11 0 0 -11 18 -10 24 -45 134 -46 139 -3 8 -65 134 -1 1 -69 134 -5 8 -4 6 0 8 0 4 4 4 0 0 16 16 3 3 28 33 33 33 0 0 35 35 0 0 35 35 23 23 9 12 19 30 0 0 14 20 7 14 11 28 0 0 12 28 3 10 6 27 7 22 3 18 0 28 0 30 -2 15 -7 28 0 0 -7 29 -5 14 -12 23 -2 3 -16 28 -1 2 -19 30 -9 12 -23 23 -19 23 -3 4 -220 227 0 1 -111 111 0 0 -110 115 -1 1 -23 23 -15 11 -30 16 -2 1 -23 12 -4 2 -28 12 -2 0 -30 12 -4 2 -23 7 -9 2 -30 5 -9 1 -28 0 -30 0 -10 -1 -28 -5 -4 -1 -30 -7 -10 -3 -28 -12 0 0 -28 -11 -30 -12 -14 -7 -23 -16 -4 -3 -28 -23 -7 -7 -30 -35 -1 -1 -31 -37 -67 -67 -11 -7 -11 -4 -1 0 -5 0 -7 0 -1 0 -13 5 -65 37 -3 1 -69 35 -3 1 -69 30 -3 2 -76 28 0 0 -144 57 -5 2 -149 46 -12 5 -3 4 -1 2 -7 15 -2 3 0 2 0 9 0 116 0 116 -1 12 -12 58 -4 13 -23 53 -2 5 -25 46 -11 14 -35 35 -3 2 -39 35 -14 9 -46 23 -7 3 -53 19 -16 3 -65 5 -4 0 -146 0 -69 0 -69 0 -12 0 -24 -5 -12 -5 -9 -4 -12 -7 -2 -1 -7 -5 -24 -30 -5 -12 -5 -23 0 -23 0 -35 0 -35 0 -16 -4 -14 -3 -18 0 -16 9 -33 1 -2 7 -24 5 -7 18 -18 7 -5 35 -11 10 0 4 -2 25 -5 19 0 30 0 28 0 35 0 76 0 81 0 16 0 4 -4 0 0 2 -2 0 -1 2 -4 0 -10 0 -111 0 -97 1 -9 7 -46 1 -5 12 -49 2 -6 16 -46 5 -11 23 -39 10 -13 35 -35 3 -3 35 -30 11 -7 42 -23 10 -4 46 -16 2 -1 144 -46 135 -52 139 -61 132 -68 5 -2 46 -19 46 -19 24 -5 53 0 46 0 18 3 39 12 6 2 46 19 7 3 42 23 10 7 42 35 4 4 69 69 62 62 17 12 11 10 3 3 5 2 8 -4 11 -4 11 -7 219 -219 0 0 103 -108 111 -115 12 -14 5 -7 0 0 0 -5 -5 -7 -10 -11 -73 -60 -8 -8 -65 -76 0 0 -35 -42 -3 -4 -28 -39 -7 -13 -19 -46 -2 -7 -12 -42 -2 -17 0 -46 0 -46 5 -24 18 -46 16 -44 3 -8 69 -134 0 0 62 -126 53 -138 0 0 45 -142 0 0 16 -53 6 -14 23 -39 7 -10 37 -42 8 -7 35 -28 7 -5 39 -23 4 -2 46 -23 16 -6 60 -12 4 -1 58 -7 7 -1 93 0 100 0 9 0 2 -1 2 -5 0 -5 0 -319 0 -319 0 -12 -3 -7 -1 -3 -3 -3 -3 -3 -14 -3 -3 -1 -14 -4 -42 0 -49 0 -46 0 -51 0 -5 0 -53 -5 -4 0 -46 -7 -12 -3 -46 -16 -10 -4 -42 -23 -14 -10 -35 -35 -3 -3 -30 -35 -7 -11 -23 -42 -4 -10 -16 -46 0 -2 -45 -142 -52 -130 0 0 -58 -134 0 0 -63 -129 -1 -2 -23 -53 -2 -4 -16 -46 -3 -12 -7 -46 -1 -9 0 -53 2 -15 12 -46 3 -8 19 -46 7 -13 28 -39 1 -1 35 -46 8 -9 76 -69 0 0 63 -58 7 -11 2 -3 7 -9 0 0 0 -2 -16 -16 0 0 -111 -111 0 0 -110 -108 0 0 -116 -111 -1 -1 -111 -111 0 0 -13 -11 -6 -5 -8 5 -11 11 -3 3 -33 28 -35 32 -61 68 -2 2 -23 23 -5 4 -23 19 -6 4 -19 12 0 0 -20 14 -8 5 -23 12 -10 4 -23 7 -6 1 -23 5 0 0 -28 7 -14 2 -46 0 -13 -1 -53 -12 -8 -2 -51 -19 -4 -1 -53 -23 -3 -1 -123 -62 0 0 -122 -58 -63 -22 0 0 -68 -23 -1 0 -64 -23 -58 -15 -8 -2 -58 -23 -2 -1 -53 -23 -15 -9 -42 -35 -4 -4 -35 -35 -10 -14 -23 -42 -1 -2 -23 -46 -7 -23 -5 -58 0 0 -7 -60 -1 -7 0 -176 0 -10 -2 -4 -3 -9 -1 -2 -9 -3 -21 0 -262 0 -12 0 -12 0 -23 -5 -12 -5 -21 -14 -7 -7 0 0 -5 -5 -9 -12 -7 -12 -9 -33 0 -12 4 -22 3 -7 0 -28 0 -42 0 -35 0 -30 0 -62 62 -2 389 -12 2 63zm0 0l0 0z"/>
  <path class="fil0" d="M5140 5971l0 -16 0 -23 0 -12 0 -12 0 -23 0 -12 0 -36 31 -19 4 -2 18 -18 26 0 12 0 12 0 8 0 7 -3 22 -4 15 0 59 -4 58 -11 0 0 60 -12 1 0 58 -11 54 -17 3 -1 55 -15 43 -20 58 -30 4 -2 51 -22 46 -26 96 -67 85 -68 81 -81 0 0 76 -87 61 -88 0 0 34 -53 26 -46 22 -55 1 -2 23 -51 21 -52 15 -55 1 -2 17 -53 11 -55 11 -64 6 -54 4 -59 0 -62 0 -55 -4 -50 0 0 -7 -56 0 0 -6 -46 -23 -104 -32 -95 0 0 -39 -97 -43 -92 -57 -81 0 0 -61 -85 -66 -77 -77 -70 -80 -62 0 0 -86 -60 -89 -49 -95 -44 -102 -40 -101 -28 -59 -11 0 0 -55 -11 -51 -4 -56 0 -12 0 -12 0 -33 -9 -12 -7 -2 -1 -7 -5 -18 -18 -5 -7 -1 -2 -7 -12 -9 -33 0 -12 7 -25 0 -45 0 -58 0 -23 5 -23 5 -12 24 -30 7 -5 2 -1 12 -7 33 -9 12 0 12 0 81 0 9 1 81 12 0 0 87 11 6 1 81 19 4 1 76 23 76 23 5 2 69 28 1 1 69 30 5 2 65 35 3 2 65 39 2 1 62 42 2 1 58 42 2 1 60 46 1 1 58 46 5 4 51 51 2 2 49 53 2 3 46 58 46 58 3 4 39 58 0 1 42 62 3 5 35 65 2 3 30 65 0 1 28 62 0 1 30 69 4 11 15 66 24 66 2 7 16 69 1 4 12 72 0 4 7 74 0 2 5 76 0 4 0 69 0 74 0 4 -5 76 0 6 -12 76 0 0 -12 74 -1 5 -19 76 0 2 -30 109 -2 5 -39 104 -2 4 -46 100 -2 3 -53 100 -4 6 -65 93 -1 1 -62 86 -5 6 -76 81 -1 1 -81 83 -5 4 -83 69 -5 4 -93 62 -2 1 -93 58 -4 2 -100 53 -7 3 -104 39 -103 41 -11 3 -111 23 -1 0 -118 23 -8 1 -69 5 -4 0 -74 0 -25 0 -12 0 -23 -5 0 0 -64 0 0 -64 0 0 -5 -23 0 -12 0 -23 0 -23 0 -19zm-2221 -1507l0 0 -104 0 -100 0 -12 0 -12 0 -12 -7 -5 -5 -12 -12 0 -23 0 -104 0 -95 0 -97 0 -104 0 -23 12 -12 5 -7 12 -5 12 0 12 0 106 0 104 0 100 0 104 0 12 0 12 0 12 5 7 7 12 12 0 23 0 197 0 204 0 23 -12 12 -7 5 -12 7 -12 0 -12 0 -100 0 -111 0 0 0zm852 -842l0 0 0 100 0 104 0 30 -7 16 -5 7 -12 0 -12 5 -12 0 -100 -5 -104 0 -100 0 -93 5 -19 0 -12 -5 -12 0 -7 -7 -5 -12 -7 -5 0 -30 7 -204 -7 -213 7 -23 5 -12 19 -14 30 0 197 0 187 0 16 0 12 0 12 7 7 7 5 5 7 12 0 12 0 19 0 104 0 97 0 0zm967 940l0 0 97 0 46 0 49 0 28 0 19 7 5 5 0 12 7 12 0 12 0 104 0 106 0 208 -7 23 -5 12 -19 12 -16 0 -211 0 -104 0 -106 0 -16 0 -19 -12 -5 -12 -7 -23 0 -208 0 -106 0 -104 0 -12 7 -12 0 -12 5 -5 19 -7 16 0 111 0 106 0 0 0zm-625 -590l0 0 111 0 104 0 23 0 12 12 12 12 0 16 0 104 0 111 0 104 0 104 0 19 -12 12 -12 12 -16 0 -437 0 -12 0 -16 -12 -7 -12 -5 -19 0 -104 0 -104 0 -111 0 -104 0 -12 5 -12 7 -5 5 -7 12 -5 23 0 100 0 104 0 0 0zm611 -1294l0 0 -104 0 -100 0 -16 0 -19 -12 -5 -7 0 -12 -7 -12 0 -12 0 -104 0 -100 0 -104 0 -104 7 -23 5 -12 19 -12 16 -5 106 0 104 0 211 0 23 5 12 12 12 19 0 23 0 201 0 204 0 12 -7 12 0 12 -5 7 -19 12 -16 0 -106 0 -111 0 0 0zm-349 3335l0 0 0 109 0 100 0 12 0 12 -5 12 -7 7 -12 12 -23 0 -208 0 -204 0 -19 0 -16 -12 -7 -7 0 -12 -5 -12 0 -12 0 -104 0 -104 0 -111 0 -104 0 -12 5 -12 0 -12 7 -5 16 -7 19 0 204 0 208 0 23 0 12 7 7 5 5 12 0 12 0 12 0 111 0 104 0 0zm-2916 -1201l0 0 0 -111 0 -104 0 -16 12 -19 16 -5 12 -7 12 0 204 0 204 0 25 7 16 5 12 19 7 16 -7 111 -5 104 5 104 7 100 -7 28 -12 19 -16 5 -25 7 -204 0 -204 0 -12 0 -12 -7 -16 -5 -12 -19 0 -28 0 -100 0 -104 0 0zm2666 -2048l0 0 100 0 104 0 23 0 19 7 5 5 7 12 7 12 0 12 0 204 0 204 -7 28 -12 19 -19 5 -23 7 -104 -7 -104 -5 -106 5 -104 7 -23 -7 -12 -5 -12 -19 -5 -16 0 -215 0 -204 0 -12 5 -12 7 -12 5 -5 12 -7 23 0 111 0 104 0 0 0zm0 4293l0 0 -208 0 -23 0 -19 -12 -12 -19 -5 -12 0 -12 0 -197 0 -197 0 -19 5 -12 7 -12 5 -5 19 -12 23 0 204 0 208 0 19 0 12 5 12 0 5 7 14 16 0 30 0 197 0 197 0 12 -7 12 -12 19 -12 12 -23 0 -111 0 -100 0 0 0zm-3261 -690l0 0 0 -111 0 -97 0 -14 7 -12 5 -12 7 -5 12 -12 23 0 104 0 104 0 211 0 16 0 19 12 5 5 0 12 7 12 0 14 0 104 0 104 0 97 0 104 -7 30 -5 19 -19 5 -16 7 -211 -7 -104 0 -104 7 -23 -7 -12 -5 -12 -19 -7 -30 0 -97 0 -104 0 0zm1199 -963l0 0 0 -104 0 -100 0 -12 0 -12 7 -12 0 -7 5 -5 12 -7 14 0 12 0 204 0 204 0 23 0 16 12 7 7 5 12 0 12 0 12 0 104 0 104 0 215 0 16 -12 19 -16 5 -23 7 -204 -7 -204 7 -12 0 -14 -7 -12 0 -5 -5 -7 -19 0 -28 0 -100 0 -109 0 0zm2926 -1782l0 0 0 53 -7 46 0 51 7 53 -7 30 -5 16 -19 7 -28 5 -100 -5 -106 0 -97 0 -95 5 -28 -5 -19 -7 -5 -16 -7 -30 0 -204 0 -201 0 -19 7 -12 0 -12 5 -5 19 -14 28 0 199 0 199 0 28 0 19 14 5 12 7 23 -7 51 0 58 7 53 0 51 0 0zm-2412 0l0 0 0 100 0 104 -7 30 -5 16 -19 7 -16 5 -111 -5 -104 0 -106 0 -97 5 -19 -5 -19 -7 -5 -16 -7 -19 0 -215 0 -213 0 -23 7 -12 5 -7 12 -7 14 0 12 0 204 0 215 0 12 0 12 7 12 0 5 7 7 16 0 19 0 58 0 51 0 104 0 0zm349 -859l0 0 104 0 100 0 12 0 12 0 12 7 7 0 5 5 7 12 0 12 0 12 0 204 0 215 0 16 -12 19 -7 5 -12 0 -12 7 -12 0 -104 -7 -100 -5 -104 5 -106 7 -12 0 -12 -7 -12 0 -5 -5 -12 -19 0 -28 0 -204 0 -97 0 -95 0 -16 0 -12 5 -12 7 -7 5 -5 12 -7 12 0 12 0 100 0 111 0 0 0zm0 4698l0 0 -58 0 -53 -5 -53 0 -46 5 -12 0 -12 -5 -12 -7 -5 -5 -12 -19 0 -23 0 -201 0 -204 0 -23 12 -12 5 -7 12 -5 12 -7 12 0 106 0 109 0 106 0 104 0 12 0 12 7 12 5 7 7 5 12 0 23 0 204 0 201 0 23 -5 19 -7 5 -12 7 -12 5 -12 0 -58 -5 -53 0 -51 5 -53 0 0 0zm-611 -602l0 0 -111 0 -104 0 -25 0 -12 -7 -5 -5 -7 -12 0 -12 0 -12 0 -104 0 -106 0 -208 7 -16 5 -19 19 -5 19 -7 220 0 222 0 16 7 12 5 7 19 0 16 0 208 0 106 0 104 0 12 0 12 -7 12 0 5 -5 0 -12 7 -12 0 -12 0 -106 0 -109 0 0 0zm2527 28l0 0 -100 0 -104 0 -30 0 -16 -5 -7 -7 0 -12 -5 -12 0 -12 0 -104 0 -109 0 -106 0 -104 5 -23 7 -12 16 -12 19 -5 215 0 215 0 16 5 19 12 7 12 5 23 0 104 0 106 0 109 0 104 -5 19 -7 16 -19 7 -16 5 -58 0 -53 0 -104 0 0 0zm-717 -4803l0 0 -208 0 -23 0 -19 -12 -5 -5 -7 -12 -5 -12 0 -12 0 -204 0 -104 0 -104 0 -12 5 -12 7 -12 5 -7 12 -12 23 0 104 0 106 0 111 0 104 0 23 7 12 12 12 16 7 23 0 204 0 204 0 12 -7 12 -7 12 -5 5 -19 12 -23 0 -104 0 -100 0 0 0zm-604 3585l0 0 -100 0 -53 0 -53 0 -12 0 -12 -7 -12 0 -5 -5 -7 -12 -5 -7 0 -16 5 -12 0 -204 0 -204 -5 -16 0 -12 5 -12 7 -7 5 -5 12 -7 12 0 12 0 206 0 204 0 28 0 19 12 5 7 0 12 7 12 0 12 0 104 0 104 0 204 -7 28 -5 19 -19 5 -28 7 -53 0 -46 0 -104 0 0 0zm-1544 -2645l0 0 0 100 0 104 0 23 -12 16 -7 7 -12 5 -12 7 -12 0 -104 -7 -106 -5 -104 5 -100 7 -28 -7 -19 -12 -5 -16 -7 -23 0 -208 0 -104 0 -106 7 -28 5 -19 19 -5 28 -7 106 0 104 0 100 0 104 0 23 7 12 5 12 19 7 16 0 58 0 53 0 58 0 58 0 0zm687 -840l0 0 0 -58 0 -58 0 -53 0 -46 0 -30 12 -16 5 0 12 -7 12 0 12 0 106 0 104 0 100 0 104 0 12 0 12 0 12 7 7 0 12 16 0 30 0 104 0 104 0 208 0 23 -12 19 -7 5 -12 7 -12 7 -12 0 -104 0 -100 0 -104 0 -106 0 -12 0 -12 -7 -12 -7 -5 -5 -12 -19 0 -23 0 -104 0 -97 0 0zm-1801 2963l0 0 222 0 227 0 28 0 19 12 5 7 0 12 7 12 0 16 0 204 0 204 0 28 -7 19 -5 5 -12 0 -12 7 -12 0 -234 -7 -227 0 0 -516 0 0zm0 -1773l0 0 227 0 234 0 16 0 12 5 12 0 7 7 12 16 0 30 0 93 0 97 0 204 0 23 -7 19 -5 5 -7 7 -12 5 -16 0 -116 -5 -118 -7 -238 0 0 -498 0 0z"/>
  <rect class="fil1" width="9157" height="9157"/>
 </g>
</svg>
