<?xml version="1.0" encoding="UTF-8"?>
<!DOCTYPE svg PUBLIC "-//W3C//DTD SVG 1.1//EN" "http://www.w3.org/Graphics/SVG/1.1/DTD/svg11.dtd">
<!-- Creator: CorelDRAW X6 -->
<svg xmlns="http://www.w3.org/2000/svg" xml:space="preserve" width="9.27175in" height="9.27175in" version="1.1" style="shape-rendering:geometricPrecision; text-rendering:geometricPrecision; image-rendering:optimizeQuality; fill-rule:evenodd; clip-rule:evenodd"
viewBox="0 0 6508 6508"
 xmlns:xlink="http://www.w3.org/1999/xlink">
 <defs>
  <style type="text/css">
   <![CDATA[
    .fil0 {fill:none}
    .fil1 {fill:#1DD3F8}
   ]]>
  </style>
 </defs>
 <g id="Layer_x0020_1">
  <metadata id="CorelCorpID_0Corel-Layer"/>
  <rect class="fil0" width="6508" height="6508"/>
  <path class="fil1" d="M2030 3757c232,3 548,-24 758,40 189,58 410,158 588,209 201,58 536,36 759,36 109,0 257,-28 298,100 19,60 -10,115 -39,143 -37,36 -93,39 -157,39 -266,0 -531,0 -797,0 -66,0 -139,-3 -204,0 -125,6 -137,187 18,187l995 0c64,0 116,-1 172,-24 80,-34 86,-60 120,-78l290 -105c197,-71 389,-139 586,-211 45,-16 105,-46 159,-37 53,9 91,46 106,91 41,126 -93,169 -171,213 -412,233 -874,465 -1292,697 -80,44 -173,102 -263,132 -248,84 -433,-16 -647,-82 -199,-62 -398,-132 -598,-199 -332,-111 -309,-118 -679,-115l1 -1035zm-571 923c-13,15 -8,218 -4,235 32,15 85,6 122,6 26,0 111,6 120,-8l-2 -233 -236 0zm-397 235l240 0 -1 -236 -239 1 -1 235zm2712 -3197c-125,39 -225,129 -234,283 -10,171 104,254 212,311 67,36 304,113 209,276 -32,54 -107,75 -193,56 -93,-20 -114,-54 -178,-87l-72 175c48,58 149,91 245,104l2 170 184 1 1 -183c290,-87 338,-439 76,-606 -54,-34 -110,-54 -166,-86 -54,-31 -118,-63 -105,-146 11,-70 76,-101 158,-93 78,8 127,45 186,70l75 -174c-31,-13 -56,-35 -94,-50 -44,-17 -69,-20 -117,-32l-3 -165 -184 -1 -2 177zm-901 630c-43,-565 392,-1021 911,-1058 567,-40 1025,390 1061,912 39,563 -392,1015 -909,1054 -570,43 -1024,-389 -1063,-908zm883 -1244c-614,45 -1125,598 -1070,1273 50,615 599,1122 1278,1065 612,-51 1125,-597 1066,-1274 -14,-160 -66,-328 -135,-450 -72,-127 -99,-157 -184,-253 -56,-63 -169,-151 -246,-197 -214,-129 -451,-183 -710,-164zm1370 3673c125,-68 325,-181 451,-243 154,-76 322,-163 296,-389 -15,-128 -104,-221 -203,-259 -135,-51 -249,2 -369,47l-673 241c-13,-128 -68,-211 -142,-260 -110,-74 -195,-59 -339,-59 -217,0 -570,24 -758,-42 -99,-35 -196,-72 -295,-107 -100,-35 -196,-76 -299,-102 -211,-54 -536,-37 -764,-35 -13,-119 32,-263 -107,-274 -114,-9 -266,-1 -383,-1 -256,0 -511,1 -767,0 -65,0 -113,5 -134,58 -24,60 14,113 59,126 40,11 1055,5 1143,4l-1 1562c-82,-1 -1105,-7 -1142,3 -45,12 -83,66 -61,125 19,50 65,59 129,58 369,-2 776,7 1138,0 153,-3 115,-124 124,-253 166,2 268,-11 422,40l1039 345c133,44 267,55 412,29 140,-25 220,-74 329,-132l894 -484z"/>
 </g>
</svg>
