<?xml version="1.0" encoding="UTF-8"?>
<!DOCTYPE svg PUBLIC "-//W3C//DTD SVG 1.1//EN" "http://www.w3.org/Graphics/SVG/1.1/DTD/svg11.dtd">
<!-- Creator: CorelDRAW X6 -->
<svg xmlns="http://www.w3.org/2000/svg" xml:space="preserve" width="8.29406in" height="8.29406in" version="1.1" style="shape-rendering:geometricPrecision; text-rendering:geometricPrecision; image-rendering:optimizeQuality; fill-rule:evenodd; clip-rule:evenodd"
viewBox="0 0 8641 8641"
 xmlns:xlink="http://www.w3.org/1999/xlink">
 <defs>
  <style type="text/css">
   <![CDATA[
    .fil0 {fill:none}
    .fil1 {fill:#1DD3F8}
   ]]>
  </style>
 </defs>
 <g id="Layer_x0020_1">
  <metadata id="CorelCorpID_0Corel-Layer"/>
  <rect class="fil0" width="8641" height="8641"/>
  <path class="fil1" d="M6210 6018c390,-152 573,456 212,576 -388,129 -617,-419 -212,-576zm-2067 -2872l32 -164 292 0c0,19 -4,72 0,91 12,53 17,48 31,73 240,50 290,109 458,182 68,-57 59,-70 148,-108l212 220 -116 134c92,177 118,221 190,453l179 58 0 260 -183 58c-60,226 -97,272 -188,439l117 131 -222 228 -134 -111c-148,74 -264,156 -464,186l-17 179 -317 3 -16 -183c-203,-30 -319,-112 -463,-182l-136 115 -218 -224 112 -144c-91,-168 -129,-213 -188,-439l-183 -58 0 -260c6,-5 18,-18 22,-11l156 -47c72,-234 99,-276 191,-455l-113 -120 210 -230c87,35 77,49 145,106 169,-73 217,-132 458,-182zm-482 4467c121,63 1199,63 1328,0l-11 -136c-124,-63 -1191,-63 -1324,0l6 137zm1490 -490c-8,-179 -705,-101 -859,-101 -147,0 -839,-80 -801,128 27,149 1021,78 1322,81 134,1 345,36 338,-109zm-995 -3506c802,-224 1113,969 340,1193 -797,232 -1145,-969 -340,-1193zm-665 670c70,1050 1735,983 1661,-138 -69,-1061 -1737,-1007 -1661,138zm725 1417l0 902 -625 0c-4,-1013 -608,-953 -901,-1701 -488,-1245 407,-2463 1631,-2462 1385,1 2566,1721 1098,3202 -305,307 -368,529 -369,960l-624 1 0 -902c7,-5 19,-17 23,-11 5,8 28,-13 45,-19 33,-13 32,-8 66,-23 210,-90 31,-200 305,-271 222,-58 149,209 512,-153 314,-314 45,-266 127,-507 102,-301 280,26 278,-520 -2,-529 -170,-196 -276,-492 -90,-250 194,-193 -137,-526 -351,-352 -303,-71 -519,-145 -351,-119 52,-283 -557,-283 -496,0 -174,154 -479,275 -230,92 -192,-199 -525,138 -331,335 -90,253 -138,497 -64,328 -286,21 -290,506 -5,546 143,266 261,508 130,267 -178,229 129,535 382,380 302,130 507,162 15,2 110,42 119,48 126,78 22,-13 89,116 41,77 21,67 96,105l131 50c6,2 16,6 23,11zm-129 -3457c-1569,191 -2253,2024 -1338,3178 171,215 336,342 493,578 203,306 61,726 277,797l1580 6c354,-87 -106,-460 526,-1070 388,-375 664,-898 676,-1477 24,-1169 -994,-2159 -2213,-2011zm-1847 3766c395,-133 544,451 217,577 -415,160 -614,-444 -217,-577zm4812 -1989c397,-122 530,462 192,583 -391,139 -622,-450 -192,-583zm-5617 -5c410,-108 536,510 150,596 -405,91 -545,-492 -150,-596zm4744 -1964c397,-197 599,408 256,558 -352,153 -640,-367 -256,-558zm-3974 -6c384,-179 617,405 263,559 -387,169 -633,-387 -263,-559zm2016 -828c382,-152 571,427 231,566 -302,124 -534,-192 -403,-433 49,-90 90,-100 172,-133zm-1412 838c157,-58 292,-163 466,-235 170,-71 341,-128 526,-160 58,55 43,70 88,133 181,254 528,300 764,103 157,-131 108,-159 189,-236 184,32 358,90 526,160 174,72 310,178 466,235 -33,282 -109,419 107,637 216,217 354,141 637,107 101,274 308,470 394,992 -77,84 -115,38 -249,205 -378,472 244,831 249,836 -85,516 -291,715 -396,991 -283,-31 -418,-111 -636,109 -215,217 -144,354 -106,638 -565,208 -766,676 -113,299 319,-184 212,-174 365,-103 334,157 630,-41 713,-294 77,-231 7,-280 -52,-452 -50,-147 317,-434 440,-1188 631,-134 620,-920 -2,-1041 -50,-342 -194,-703 -373,-988 -109,-175 -100,-110 -26,-276 114,-258 -19,-529 -167,-629 -282,-191 -423,-58 -650,8 -297,-199 -694,-396 -1128,-458 -126,-625 -906,-634 -1042,-2 -349,55 -685,191 -951,352 -324,195 -118,69 -420,15 -194,-35 -376,42 -469,137 -93,95 -178,294 -133,491 66,292 170,90 -29,416 -154,253 -290,607 -340,934 -621,121 -634,906 -2,1041 69,440 214,715 409,1042 70,117 63,74 12,182 -224,481 215,925 699,699 111,-52 63,-59 183,13 860,515 539,60 376,-28 -113,-61 -215,-130 -327,-171 38,-284 108,-424 -106,-639 -218,-219 -354,-139 -636,-108 -113,-299 -293,-429 -395,-991 61,-65 360,-168 360,-521 0,-342 -288,-443 -360,-521 86,-521 290,-714 395,-991 283,31 418,111 636,-109 217,-218 141,-353 108,-637z"/>
 </g>
</svg>
