<?xml version="1.0" encoding="UTF-8"?>
<!DOCTYPE svg PUBLIC "-//W3C//DTD SVG 1.1//EN" "http://www.w3.org/Graphics/SVG/1.1/DTD/svg11.dtd">
<!-- Creator: CorelDRAW X6 -->
<svg xmlns="http://www.w3.org/2000/svg" xml:space="preserve" width="9.17454in" height="9.17454in" version="1.1" style="shape-rendering:geometricPrecision; text-rendering:geometricPrecision; image-rendering:optimizeQuality; fill-rule:evenodd; clip-rule:evenodd"
viewBox="0 0 9336 9336"
 xmlns:xlink="http://www.w3.org/1999/xlink">
 <defs>
  <style type="text/css">
   <![CDATA[
    .fil0 {fill:none}
    .fil1 {fill:#1DD3F8}
   ]]>
  </style>
 </defs>
 <g id="Layer_x0020_1">
  <metadata id="CorelCorpID_0Corel-Layer"/>
  <rect class="fil0" width="9336" height="9336"/>
  <g id="_749000544">
   <g>
    <path class="fil1" d="M2161 5646c-385,0 -401,-506 0,-506l344 0c402,0 423,506 0,506l-344 0zm-116 -638c-465,90 -450,771 115,781 119,2 408,11 508,-14 409,-102 415,-767 -141,-777 -123,-2 -377,-11 -483,10z"/>
    <path class="fil1" d="M7715 5789c62,-36 80,-84 106,-140 -290,-14 -707,83 -776,-186l649 0 75 -138 -717 -2c26,-256 421,-173 683,-186l74 -135c-389,-29 -878,-61 -926,336 -24,199 88,348 221,412 130,63 450,39 612,39z"/>
    <path class="fil1" d="M3039 5788l155 0 1 -646c129,-5 260,-2 388,-3 163,-1 239,6 232,177 -113,123 -333,67 -533,78 35,42 81,92 130,130 284,219 202,276 515,263 -81,-96 -198,-160 -272,-251 142,-9 227,-41 286,-146 72,-130 15,-260 -68,-327 -133,-108 -615,-65 -821,-63l-12 789z"/>
    <path class="fil1" d="M3982 5790c211,-1 157,21 261,-140l249 -397c4,-6 21,-28 28,-36 42,-48 5,-8 31,-31 68,87 154,227 197,322l-385 1c22,57 52,99 83,140l406 2 79 137 179 1c-49,-119 -295,-468 -391,-625 -47,-77 -75,-169 -170,-170 -104,-2 -247,278 -299,362 -77,125 -213,301 -269,434z"/>
    <path class="fil1" d="M5909 5787l76 -138c-265,-2 -748,90 -791,-211 -56,-387 466,-298 700,-298l76 -138c-326,-6 -894,-102 -930,352 -17,217 107,348 247,406 125,52 470,33 622,27z"/>
    <path class="fil1" d="M6834 5786l75 -137 -692 -2 -11 -647 -140 0c-19,87 -29,696 6,749 47,73 637,44 761,38z"/>
   </g>
   <path class="fil1" d="M2649 4336c-94,-470 -101,-704 121,-1099 146,-259 406,-511 717,-632 376,-146 778,-156 1147,-2 293,122 600,388 715,633 -26,26 -191,92 -306,171 -70,48 -209,152 -241,218l330 146c43,-22 70,-55 116,-86 319,-214 781,-217 1127,-84 220,84 263,124 427,242 92,66 193,183 263,273 55,70 93,158 154,236 187,9 295,-27 482,14 372,82 698,339 842,707 303,773 -125,1760 -1121,1768 -1700,13 -3440,-3 -5145,0 -844,1 -1424,-560 -1558,-1275 -164,-869 503,-1785 1506,-1799 -1,106 -7,379 59,448 20,21 322,115 365,121zm-347 -934c-867,-14 -1443,466 -1736,993 -557,1002 -67,2276 954,2672 447,174 719,143 1221,138 1358,-12 2723,14 4072,0 467,-5 826,47 1238,-122 566,-232 1054,-903 934,-1757 -100,-708 -642,-1275 -1380,-1343 -182,-17 -157,37 -254,-95 -53,-71 -174,-212 -241,-266 -38,-30 -52,-42 -96,-78 -57,-47 -128,-95 -199,-135 -444,-254 -638,-232 -1088,-260 -53,-66 -91,-157 -138,-224 -154,-215 -303,-370 -550,-522 -847,-522 -1949,-284 -2505,525 -75,110 -199,327 -232,474z"/>
  </g>
 </g>
</svg>
