<?xml version="1.0" encoding="UTF-8"?>
<!DOCTYPE svg PUBLIC "-//W3C//DTD SVG 1.1//EN" "http://www.w3.org/Graphics/SVG/1.1/DTD/svg11.dtd">
<!-- Creator: CorelDRAW X6 -->
<svg xmlns="http://www.w3.org/2000/svg" xml:space="preserve" width="17in" height="17in" version="1.1" style="shape-rendering:geometricPrecision; text-rendering:geometricPrecision; image-rendering:optimizeQuality; fill-rule:evenodd; clip-rule:evenodd"
viewBox="0 0 16802 16802"
 xmlns:xlink="http://www.w3.org/1999/xlink">
 <defs>
  <style type="text/css">
   <![CDATA[
    .fil0 {fill:none}
    .fil1 {fill:#1DD3F8}
   ]]>
  </style>
 </defs>
 <g id="Layer_x0020_1">
  <metadata id="CorelCorpID_0Corel-Layer"/>
  <rect class="fil0" width="16802" height="16802"/>
  <path class="fil1" d="M3004 3099l-13 6849 -2 12 0 1 -9 25 -2 0 -1 2 -3 7c-3,5 -8,10 -12,14l0 0c-4,4 -9,7 -14,9l0 0c-13,6 -31,11 -51,15 -17,3 -37,7 -59,10l0 0c-31,5 -65,10 -99,21l0 0c-32,10 -64,24 -95,48 -33,25 -60,57 -79,100 -20,45 -31,101 -28,173 1,37 5,70 13,99 7,29 17,54 29,76 14,25 30,47 49,65 19,18 40,33 63,45l1 0c24,12 50,22 77,29 28,8 58,13 90,17 28,3 58,5 89,7 32,1 65,1 99,1 661,-4 1334,0 2008,5l0 0 37 0 78 0c475,3 951,6 1423,6 244,0 487,-1 728,-3 241,-2 480,-5 717,-10l33 -1 4 33c3,26 7,58 9,95 3,36 5,78 7,126 2,59 4,124 5,191 1,63 1,127 -1,188 -1,56 -3,109 -6,158 -3,47 -7,91 -12,130 -4,29 -7,53 -11,71l0 0c-4,20 -9,36 -14,47l-7 10 -544 568 0 0 -4 4 0 0c-36,42 -101,108 -182,189 -81,81 -179,177 -284,280l-7 7 -26 26 0 0c-370,363 -806,791 -855,905l0 0 -1 3 -1 2 0 1 -6 14 -1 4c-5,16 -9,31 -12,46 -3,16 -4,32 -4,48 0,19 2,38 5,56 4,19 9,37 16,54 6,16 14,30 23,44l0 0c8,13 18,26 28,37l0 0 0 0 1 1c11,12 24,24 37,33 13,9 27,17 41,24l64 28 8 -12 18 -1c56,-3 119,-27 185,-66 69,-40 142,-96 216,-161 81,-72 166,-156 250,-243 86,-90 167,-178 241,-259l4 -4 0 0c49,-53 95,-104 131,-142 41,-43 78,-82 111,-113l0 0c13,-12 32,-30 55,-52l13 -13 0 0 27 -26c64,-62 146,-141 224,-214 79,-74 154,-144 204,-186l59 -50 2 77c1,52 2,105 3,158 1,52 1,105 1,158 0,65 0,130 0,195 0,66 -1,131 -1,196l0 16 0 37c0,85 -1,170 -1,254 0,13 0,29 -1,50 0,15 -1,28 -1,39l0 0c-1,22 -2,46 -3,70l-1 26 0 0 0 5 0 9c-2,46 -4,91 -4,133l0 0c-1,56 2,109 9,157 7,47 20,90 41,127 24,44 57,79 100,103 45,25 102,39 175,40 69,1 124,-12 167,-34l0 0c42,-22 75,-55 100,-96 21,-35 35,-76 44,-120 9,-46 12,-96 13,-148 0,-28 0,-58 -1,-87 -1,-29 -2,-59 -3,-90l0 -1 0 0 0 0 0 -4 0 0 -4 -93 0 -1 -1 -36 0 -1 0 -3 0 -44c0,-69 -1,-173 -2,-282l0 -23 0 -32 0 0 0 -9c-2,-124 -3,-249 -3,-371 0,-50 0,-100 1,-149 1,-50 2,-100 4,-149l3 -75 58 48c23,19 43,38 63,58 20,20 39,40 57,60l6 6 0 0c11,11 22,23 43,44 7,7 15,15 24,23 8,8 17,16 27,25l29 26 -1 1 795 774 1 -1 26 27 2 2 23 22 -1 1 6 6c6,7 17,19 29,32l0 0 1 1 1 1 3 3 25 27 0 0c65,72 147,160 236,228 95,73 197,126 294,113l5 0 1 0 9 -2 0 0 5 -1 1 0c16,-4 32,-9 47,-15 16,-7 30,-15 43,-24l1 0c13,-9 25,-20 37,-32 11,-12 22,-25 31,-39l0 0c9,-15 17,-31 24,-48 6,-17 11,-34 14,-52l0 0c3,-15 4,-31 4,-47 0,-15 -1,-32 -4,-49l0 -4 -2 -10 -2 -8 -1 -2c-6,-27 -57,-95 -137,-189 -84,-98 -199,-222 -332,-359 -126,-131 -268,-276 -414,-423 -146,-148 -295,-298 -433,-437l-15 -15c-126,-126 -242,-243 -338,-341 -49,-50 -93,-95 -130,-133 -38,-39 -69,-73 -92,-98l0 0c-26,-29 -44,-78 -56,-141 -11,-58 -19,-130 -23,-208 -9,-161 -4,-341 2,-490l0 0 1 -39 1 -15c2,-57 4,-108 4,-148l0 -37 37 0c183,2 366,3 550,3 183,1 367,1 550,1 341,0 683,-1 1025,-2l113 0 551 -1 551 -1 478 0 61 0c184,0 367,0 551,0 102,0 204,0 307,1 102,0 204,1 305,2 34,0 67,0 98,-2 31,-2 60,-5 87,-9 30,-5 59,-12 85,-21l0 0c26,-9 49,-19 70,-32l0 0c21,-13 40,-29 57,-47 16,-18 31,-40 42,-65 10,-22 18,-46 24,-73 6,-28 9,-58 10,-91 3,-143 -34,-221 -98,-269l0 0c-68,-50 -171,-71 -291,-96l0 0 -13 -3 0 0 -19 -4 -30 -6 0 0 -14 -3 0 -30 2 -6880 0 -33 32 -4c28,-4 56,-8 84,-13 27,-5 52,-10 75,-15 31,-8 60,-17 88,-28l0 0c26,-11 50,-23 71,-37 21,-15 40,-32 55,-52 16,-20 28,-44 38,-71l3 -7c7,-22 12,-45 15,-71 3,-30 3,-63 1,-100 -3,-36 -9,-68 -18,-96 -9,-28 -21,-52 -35,-73l0 0c-16,-23 -34,-42 -55,-58 -21,-16 -44,-29 -70,-39 -26,-10 -54,-18 -85,-23 -31,-6 -64,-10 -98,-12l-12 -1c-27,-2 -56,-3 -85,-3 -35,-1 -72,-1 -110,0l-37 0 0 0 -10511 0 0 0 -37 0c-35,0 -69,0 -103,0 -32,0 -64,2 -95,4 -35,3 -68,6 -99,12 -31,6 -60,13 -87,23l0 0c-26,10 -50,22 -72,37 -22,15 -41,34 -58,57 -16,22 -30,46 -39,74 -10,28 -16,60 -18,95l0 0 0 0 0 2c-4,72 4,129 23,175 18,44 46,79 83,108l1 0c33,26 69,44 109,58 41,15 87,26 136,39l4 1 41 10 0 0c19,5 34,9 42,11l28 7 0 28zm498 6869l-2 -5291 0 -367 0 -37 0 0 0 -526c0,-102 -3,-206 -5,-293l0 -1 0 0 0 0 0 -5 0 0 0 -10 0 -1 0 0 0 0c0,-21 -1,-41 -1,-64 0,-28 -1,-54 -1,-77 0,-58 1,-102 5,-136 4,-40 12,-67 27,-82 14,-14 38,-22 75,-26 22,-2 49,-3 82,-4l0 -1 37 0c169,0 331,-1 535,-1l35 0 0 0 0 0 0 0 878 -4 0 0 28 0c1322,-5 3215,-13 4843,-12 786,0 1510,3 2077,9 569,6 980,15 1137,29l34 3 0 34 18 6865 0 37 -37 0 -9728 -2 -37 0 0 -37z"/>
  <path class="fil1" d="M11021 5154l-390 0 0 3902 386 0 5 -3902zm-5563 2569l-15 2 0 1337c23,10 97,5 148,2 18,-1 34,-2 44,-2l58 0 0 0c49,0 98,1 147,-1l0 -1335 -383 -3zm561 1548l-763 0 -31 0 0 -31 3 -1694 0 -31 31 0 759 0 31 0 0 31 1 1694 0 31 -31 0zm1115 -2053l-391 -1 0 1838 389 1 2 -1838zm-571 -222l752 -5 31 0 0 31 3 2216 0 31 -31 0 -760 0 -31 0 0 -31 4 -2212 0 -31 31 0zm3163 -224l-391 0 0 2257 1 26 388 0 2 -25 -1 -2258zm189 2502l-770 2 -31 0 0 -31 0 -2662 0 -31 31 0 767 0 31 0 0 31 3 2660 0 31 -31 0zm-1487 -2974l-397 0 -1 0c0,5 0,13 1,22 1,20 2,49 2,93l0 0 0 2641 396 -9 -1 -2748zm182 2965l-761 0 -31 0 0 -31 -2 -3114 0 -31 31 0 763 0 31 0 0 31 0 3114 0 31 -31 0zm2600 11l-770 0 -31 0 0 -31 0 -4280 0 -31 31 0 762 0 27 0 4 26 9 53 0 2 0 3 -1 4227 0 31 -31 0zm-276 -5078c-56,63 -148,99 -278,74 -32,52 -78,113 -117,165 -16,22 -32,42 -44,60l-58 80c-40,56 -79,109 -129,179l0 0 -662 914c-26,36 -26,36 -25,40 4,15 9,37 13,76 11,119 -53,212 -140,260l0 0c-37,20 -79,32 -120,34 -43,2 -86,-7 -125,-28 -78,-41 -139,-128 -146,-271l-785 -418 -6 4 0 0c-32,24 -69,52 -130,63 -70,12 -117,-6 -163,-24l0 0c-8,-3 -16,-6 -23,-9 -89,81 -339,302 -549,480 -123,104 -234,196 -295,239l0 3c10,132 16,223 -103,301 -28,18 -61,32 -97,39 -32,6 -68,8 -105,2 -68,-11 -98,-30 -125,-59l-939 415c-14,89 -53,151 -104,192l0 0c-38,30 -83,47 -129,52l0 0c-45,5 -91,-2 -133,-18 -70,-28 -130,-84 -155,-162 -21,-66 -18,-128 2,-181 23,-61 67,-110 118,-141 148,-89 243,-20 321,46l931 -456c21,-85 58,-146 116,-182 64,-40 147,-45 256,-13 13,4 18,-1 34,-17 17,-17 39,-38 69,-63l0 0 764 -645c-7,-77 1,-147 31,-203 34,-66 94,-112 185,-125l1 0 8 -1 1 0c64,-8 125,6 175,36 51,31 91,78 111,137l0 1 1 5 23 94 0 0c1,2 509,268 735,388l67 36c102,-73 127,-69 253,-37l182 -261 1 -2c56,-75 103,-140 152,-208 15,-21 33,-46 60,-83l628 -872c-1,-4 -5,-9 -7,-22 -16,-101 -43,-270 154,-345 125,-47 224,-13 288,57 45,50 71,117 75,185 3,69 -17,139 -63,191z"/>
 </g>
</svg>
