<?xml version="1.0" encoding="UTF-8"?>
<!DOCTYPE svg PUBLIC "-//W3C//DTD SVG 1.1//EN" "http://www.w3.org/Graphics/SVG/1.1/DTD/svg11.dtd">
<!-- Creator: CorelDRAW X6 -->
<svg xmlns="http://www.w3.org/2000/svg" xml:space="preserve" width="16.7333in" height="16.7333in" version="1.1" style="shape-rendering:geometricPrecision; text-rendering:geometricPrecision; image-rendering:optimizeQuality; fill-rule:evenodd; clip-rule:evenodd"
viewBox="0 0 11230 11230"
 xmlns:xlink="http://www.w3.org/1999/xlink">
 <defs>
  <style type="text/css">
   <![CDATA[
    .fil0 {fill:none}
    .fil1 {fill:#1DD3F8}
   ]]>
  </style>
 </defs>
 <g id="Layer_x0020_1">
  <metadata id="CorelCorpID_0Corel-Layer"/>
  <rect class="fil0" width="11230" height="11230"/>
  <g id="_588742168">
   <path class="fil1" d="M3643 3422c144,-23 3040,-8 3332,-8 367,0 717,-49 976,137 305,219 322,466 322,800 0,370 0,739 0,1109 0,267 31,858 -44,1066 -87,242 -315,462 -618,494 -139,15 -2033,4 -2229,4 -538,0 -1137,9 -1669,0 -167,-3 -301,-52 -420,-134 -305,-211 -320,-480 -320,-804 0,-370 0,-739 0,-1109 0,-270 -34,-848 45,-1068 102,-285 331,-441 624,-487zm4874 1089c256,4 517,-46 592,111 33,70 16,544 16,663 0,572 81,761 -262,760 -114,0 -229,-1 -346,1l0 -1534zm-5792 1532c-111,8 -239,2 -352,2 -353,1 -270,-199 -270,-771 0,-134 -22,-578 23,-663 50,-95 124,-99 257,-99 110,0 235,-6 343,2l-3 1529zm3066 -3335c110,-52 196,-115 248,-203 207,-354 -43,-751 -415,-752 -461,-2 -672,580 -307,875 45,37 81,50 138,81l-3 460c-88,11 -794,3 -947,3 -606,0 -1172,-110 -1548,368 -216,274 -207,419 -229,727 -334,19 -592,-60 -774,169 -86,107 -90,213 -90,378l0 944c0,180 6,253 96,371 202,267 599,113 772,170 18,368 190,610 390,765 302,234 519,197 947,208l-3 682 -572 0c-143,-327 -683,-243 -684,154 0,174 118,309 277,350 197,51 336,-71 403,-185 162,0 325,0 487,0 142,0 324,34 390,-83 54,-95 7,-744 25,-919l1037 2 -1 1515c-7,18 -261,139 -185,425 92,348 607,357 698,-17 67,-276 -181,-376 -190,-419l3 -1506 772 0c12,107 4,1532 4,1682 0,144 -10,258 111,298 62,20 1066,0 1243,10 200,376 668,218 691,-122 12,-182 -114,-324 -260,-367 -234,-69 -337,84 -419,167l-1043 -2 2 -1663c412,-49 795,91 1180,-148 210,-131 356,-319 434,-552 34,-102 31,-180 50,-283 268,-38 554,90 760,-173 86,-110 89,-212 89,-384l0 -933c0,-168 -7,-259 -94,-368 -224,-280 -562,-113 -757,-174 -9,-322 -59,-531 -231,-726 -418,-473 -873,-362 -1553,-362 -187,0 -805,9 -941,-2l0 -462z"/>
   <path class="fil1" d="M4687 6064c22,79 303,231 407,278 370,164 764,139 1125,-34 84,-40 144,-75 218,-123 62,-40 165,-92 132,-207 -23,-80 -141,-129 -238,-87 -51,22 -149,97 -211,130 -737,400 -1087,-160 -1285,-146 -93,7 -178,81 -147,189zm2137 -1799c-173,33 -279,92 -357,193 -323,413 2,961 498,906 279,-31 517,-294 481,-616 -30,-272 -307,-542 -621,-482zm-2555 2c-756,158 -532,1203 179,1093 462,-72 629,-677 254,-977 -102,-82 -266,-151 -434,-116z"/>
  </g>
 </g>
</svg>
