<?xml version="1.0" encoding="UTF-8"?>
<!DOCTYPE svg PUBLIC "-//W3C//DTD SVG 1.1//EN" "http://www.w3.org/Graphics/SVG/1.1/DTD/svg11.dtd">
<!-- Creator: CorelDRAW X6 -->
<svg xmlns="http://www.w3.org/2000/svg" xml:space="preserve" width="9.17298in" height="9.17298in" version="1.1" style="shape-rendering:geometricPrecision; text-rendering:geometricPrecision; image-rendering:optimizeQuality; fill-rule:evenodd; clip-rule:evenodd"
viewBox="0 0 11999 11999"
 xmlns:xlink="http://www.w3.org/1999/xlink">
 <defs>
  <style type="text/css">
   <![CDATA[
    .fil0 {fill:none}
    .fil1 {fill:#1DD3F8}
   ]]>
  </style>
 </defs>
 <g id="Layer_x0020_1">
  <metadata id="CorelCorpID_0Corel-Layer"/>
  <rect class="fil0" width="11999" height="11999"/>
  <path class="fil1" d="M7667 7968c30,-87 135,-216 203,-301 238,309 332,413 417,889 -20,11 -12,19 -65,28l-580 -13 -8 -524c7,-138 2,-41 33,-79zm-3337 2c79,44 36,486 24,596l-577 18c-51,-10 -47,-17 -65,-28 59,-327 215,-751 438,-888 49,119 144,190 181,302zm3953 -458c174,-201 586,-247 896,-246 463,1 759,121 1025,346 186,157 437,564 420,952l-1922 8c-62,-150 -76,-381 -152,-571 -85,-213 -197,-337 -267,-488zm-4985 1060l-1923 -4c-25,-566 393,-1013 758,-1180 408,-186 1319,-181 1584,124 -71,147 -178,266 -260,468 -82,202 -96,435 -160,592zm1143 -1173c124,-143 833,-421 946,-455 122,708 1117,709 1224,0 160,45 333,137 487,201 133,56 316,125 428,222l32 31c-57,85 -281,377 -301,440 -49,157 7,533 -26,734l-2465 -1c-80,-462 184,-596 -326,-1172zm1337 -590l444 14c-10,150 -57,255 -222,255 -165,0 -214,-104 -222,-269zm-3792 -677c-164,-1123 1543,-1374 1696,-241 151,1121 -1535,1341 -1696,241zm6329 -28c-129,-1157 1597,-1289 1703,-193 49,502 -315,897 -760,944 -503,53 -894,-311 -943,-752zm-3345 -985c86,-81 131,-63 287,-236 103,-113 139,-268 208,-343 450,129 619,135 1069,-1 66,73 99,217 194,329 159,186 213,165 301,251 -103,503 -833,2095 -1698,809 -227,-337 -245,-477 -361,-809zm21 -535c-30,35 26,13 -55,51 -9,-96 -20,-63 25,-131 40,-563 464,-1090 1038,-1091 566,-1 1009,532 1037,1093 45,64 36,35 22,127l-47 -52c-146,-294 -37,-595 -328,-552 -190,28 -313,205 -683,205 -354,0 -554,-200 -706,-208 -264,-13 -156,227 -303,558zm1715 1942c40,-73 100,-127 165,-199 64,-71 105,-135 155,-211 1007,-1548 163,-3106 -1026,-3107 -1172,-1 -2048,1537 -1015,3124 117,179 267,313 309,392 -117,87 -505,226 -678,303 -402,179 -411,254 -613,364 -59,-33 -317,-173 -365,-217 1009,-1007 181,-2242 -817,-2230 -1095,13 -1733,1364 -790,2230 -103,103 -297,118 -592,418 -135,137 -294,389 -379,635 -61,176 -166,718 -49,870 100,131 721,75 938,75l8103 0c218,0 837,56 938,-76 116,-152 12,-693 -49,-869 -156,-449 -522,-888 -977,-1028 53,-88 166,-183 231,-275 576,-822 6,-1968 -1015,-1979 -998,-11 -1828,1222 -817,2230 -47,43 -303,182 -365,217 -88,-38 -183,-135 -294,-204 -265,-166 -847,-352 -998,-463z"/>
 </g>
</svg>
